<svg width="20" height="20" viewBox="0 0 20 20" fill="none" xmlns="http://www.w3.org/2000/svg">
<g clip-path="url(#clip0_1_512)">
<path d="M10 14.2929L5.70711 10L10 5.70711L14.2929 10L10 14.2929Z" stroke="#75D051"/>
<path d="M9.43278 18.0156L9.43308 18.0159C9.50734 18.0903 9.59558 18.1493 9.69271 18.1894C9.78984 18.2296 9.89396 18.2502 9.99907 18.25L10.0009 18.25C10.106 18.2502 10.2101 18.2296 10.3072 18.1894C10.4044 18.1493 10.4926 18.0903 10.5669 18.0159L10.5672 18.0156L18.0152 10.5676L9.43278 18.0156ZM9.43278 18.0156L1.98476 10.5676M9.43278 18.0156L1.98476 10.5676M1.98476 10.5676C1.98464 10.5674 1.98453 10.5673 1.98441 10.5672M1.98476 10.5676L1.98441 10.5672M1.98441 10.5672C1.8343 10.4166 1.75 10.2127 1.75 10C1.75 9.78731 1.83434 9.58331 1.98451 9.4327C1.98459 9.43262 1.98467 9.43254 1.98476 9.43246L9.43242 1.98479C9.43246 1.98475 9.4325 1.98471 9.43253 1.98468C9.58315 1.83442 9.78722 1.75003 9.99997 1.75003C10.2127 1.75003 10.4167 1.83437 10.5673 1.98454C10.5674 1.98462 10.5674 1.9847 10.5675 1.98479L14.2914 5.70862L18.0152 9.43246L1.98441 10.5672ZM18.2499 10C18.2499 9.78736 18.1657 9.5834 18.0155 9.43281L18.2499 10ZM18.2499 10C18.2499 10.2126 18.1657 10.4166 18.0155 10.5672L18.2499 10ZM10.0008 1.9995L9.99917 1.99951C9.85369 1.99974 9.71415 2.05734 9.61087 2.15982L9.60948 2.1612L2.16117 9.60951L2.16024 9.61044C2.05728 9.71395 1.99948 9.854 1.99948 10C1.99948 10.146 2.05729 10.2861 2.16024 10.3896L2.16117 10.3905L9.60947 17.8388L9.61208 17.8414C9.7155 17.9433 9.85485 18.0004 9.99997 18.0004C10.1451 18.0004 10.2845 17.9433 10.3879 17.8414L10.3905 17.8388L17.8388 10.3905L17.8397 10.3896C17.9427 10.2861 18.0005 10.146 18.0005 10C18.0005 9.85402 17.9427 9.71395 17.8397 9.61043L17.8388 9.60951L10.3905 2.1612L10.3891 2.15982C10.2858 2.05735 10.1463 1.99974 10.0008 1.9995Z" fill="black" stroke="#75D051"/>
</g>
<defs>
<clipPath id="clip0_1_512">
<rect width="20" height="20" fill="white"/>
</clipPath>
</defs>
</svg>
