<svg width="20" height="20" viewBox="0 0 20 20" fill="none" xmlns="http://www.w3.org/2000/svg">
<g clip-path="url(#clip0_99_652)">
<path d="M9.99997 14.2929L5.70708 10L9.99997 5.70711L14.2929 10L9.99997 14.2929Z" stroke="#75D051"/>
<path d="M9.43281 18.0155L9.43311 18.0159C9.50737 18.0902 9.59561 18.1492 9.69274 18.1894C9.78987 18.2296 9.89399 18.2502 9.9991 18.25L10.0009 18.25C10.106 18.2502 10.2101 18.2296 10.3073 18.1894C10.4044 18.1492 10.4926 18.0902 10.5669 18.0159L10.5672 18.0155L18.0152 10.5675L9.43281 18.0155ZM9.43281 18.0155L1.98479 10.5675M9.43281 18.0155L1.98479 10.5675M1.98479 10.5675C1.98467 10.5674 1.98456 10.5673 1.98444 10.5672M1.98479 10.5675L1.98444 10.5672M1.98444 10.5672C1.83433 10.4166 1.75003 10.2126 1.75003 9.99998C1.75003 9.78728 1.83437 9.58327 1.98454 9.43267C1.98462 9.43259 1.9847 9.43251 1.98479 9.43243L9.43246 1.98476C9.43249 1.98472 9.43253 1.98468 9.43256 1.98465C9.58318 1.83439 9.78725 1.75 10 1.75C10.2127 1.75 10.4167 1.83434 10.5673 1.98451C10.5674 1.98459 10.5675 1.98467 10.5676 1.98476L14.2914 5.70859L18.0152 9.43243L1.98444 10.5672ZM18.25 9.99998C18.25 9.78733 18.1657 9.58337 18.0156 9.43278L18.25 9.99998ZM18.25 9.99998C18.25 10.2126 18.1657 10.4166 18.0156 10.5672L18.25 9.99998ZM10.0008 1.99947L9.9992 1.99948C9.85372 1.99971 9.71418 2.05731 9.6109 2.15979L9.60951 2.16117L2.1612 9.60948L2.16027 9.61041C2.05731 9.71392 1.99951 9.85397 1.99951 9.99998C1.99951 10.146 2.05732 10.286 2.16027 10.3895L2.1612 10.3905L9.6095 17.8388L9.61211 17.8414C9.71553 17.9433 9.85488 18.0004 10 18.0004C10.1451 18.0004 10.2845 17.9433 10.3879 17.8414L10.3905 17.8388L17.8388 10.3905L17.8397 10.3896C17.9427 10.286 18.0005 10.146 18.0005 9.99998C18.0005 9.85399 17.9427 9.71392 17.8397 9.6104L17.8388 9.60948L10.3905 2.16117L10.3891 2.15979C10.2858 2.05732 10.1463 1.99971 10.0008 1.99947Z" fill="black" stroke="#75D051"/>
</g>
<defs>
<clipPath id="clip0_99_652">
<rect width="20" height="20" fill="white"/>
</clipPath>
</defs>
</svg>
