<svg width="14" height="19" viewBox="0 0 14 19" fill="none" xmlns="http://www.w3.org/2000/svg">
<g clip-path="url(#clip0_61_219)">
<path d="M13.2733 7.91326H12.0919V5.09922C12.0919 2.2894 9.80885 0.00341797 6.99999 0.00341797C4.19111 0.00341797 1.90808 2.2909 1.90808 5.10255V7.91326H0.739781C0.334968 7.91326 0 8.23479 0 8.63959V17.1419C0 18.1523 0.828818 18.9735 1.83921 18.9735H12.1739C13.1843 18.9735 14 18.1523 14 17.1419V8.63959C14 8.23479 13.6781 7.91326 13.2733 7.91326ZM3.37242 5.10255C3.37242 3.09919 4.99944 1.46934 6.99999 1.46934C9.00055 1.46934 10.6276 3.09769 10.6276 5.09922V7.91326H3.37242V5.10255ZM12.5357 17.1419C12.5357 17.344 12.376 17.5091 12.1739 17.5091H1.83921C1.63713 17.5091 1.46434 17.344 1.46434 17.1419V9.37761H12.5357V17.1419Z" fill="#75D051"/>
<path d="M6.99999 15.6382C7.40481 15.6382 7.73216 15.3101 7.73216 14.9053V12.2666C7.73216 11.8618 7.4048 11.5337 6.99999 11.5337C6.59519 11.5337 6.26782 11.8618 6.26782 12.2666V14.9053C6.26782 15.3101 6.59518 15.6382 6.99999 15.6382Z" fill="#75D051"/>
</g>
<defs>
<clipPath id="clip0_61_219">
<rect width="14" height="18.9728" fill="white"/>
</clipPath>
</defs>
</svg>
