<svg width="24" height="24" viewBox="0 0 24 24" fill="none" xmlns="http://www.w3.org/2000/svg">
<path fill-rule="evenodd" clip-rule="evenodd" d="M12 4.60002C7.91312 4.60002 4.60002 7.91312 4.60002 12C4.60002 16.0869 7.91312 19.4 12 19.4C16.0869 19.4 19.4 16.0869 19.4 12C19.4 7.91312 16.0869 4.60002 12 4.60002ZM3.40002 12C3.40002 7.25037 7.25037 3.40002 12 3.40002C16.7497 3.40002 20.6 7.25037 20.6 12C20.6 16.7497 16.7497 20.6 12 20.6C7.25037 20.6 3.40002 16.7497 3.40002 12ZM9.118 14.8427C9.31533 14.5765 9.6911 14.5207 9.95731 14.718C10.54 15.1499 11.2433 15.4 12 15.4C12.7567 15.4 13.4601 15.1499 14.0427 14.718C14.3089 14.5207 14.6847 14.5765 14.882 14.8427C15.0794 15.1089 15.0235 15.4847 14.7573 15.682C13.9794 16.2587 13.028 16.6 12 16.6C10.972 16.6 10.0207 16.2587 9.24273 15.682C8.97652 15.4847 8.92068 15.1089 9.118 14.8427Z" fill="#02040F"/>
<path d="M15.2 10.8C15.2 11.4628 14.8419 12 14.4 12C13.9582 12 13.6 11.4628 13.6 10.8C13.6 10.1373 13.9582 9.60002 14.4 9.60002C14.8419 9.60002 15.2 10.1373 15.2 10.8Z" fill="#02040F"/>
<path d="M10.4 10.8C10.4 11.4628 10.0419 12 9.60002 12C9.1582 12 8.80002 11.4628 8.80002 10.8C8.80002 10.1373 9.1582 9.60002 9.60002 9.60002C10.0419 9.60002 10.4 10.1373 10.4 10.8Z" fill="#02040F"/>
</svg>
