<svg width="70" height="70" viewBox="0 0 70 70" fill="none" xmlns="http://www.w3.org/2000/svg">
<rect x="2" y="2" width="66" height="66" rx="33" fill="#FF7474" stroke="#161616" stroke-width="4"/>
<path d="M34.949 44.1365C33.6511 44.1365 32.3823 43.7516 31.3031 43.0305C30.2239 42.3094 29.3828 41.2845 28.8861 40.0854C28.3894 38.8862 28.2594 37.5667 28.5126 36.2937C28.7658 35.0207 29.3909 33.8514 30.3086 32.9336C31.2264 32.0159 32.3957 31.3908 33.6687 31.1376C34.9417 30.8844 36.2612 31.0144 37.4604 31.5111C38.6595 32.0078 39.6844 32.8489 40.4055 33.9281C41.1266 35.0073 41.5115 36.2761 41.5115 37.574C41.5101 39.3141 40.8183 40.9825 39.5879 42.2129C38.3575 43.4433 36.6891 44.1351 34.949 44.1365ZM34.949 32.7734C33.9987 32.7734 33.0698 33.0552 32.2797 33.5832C31.4896 34.1111 30.8737 34.8615 30.5101 35.7395C30.1464 36.6174 30.0513 37.5835 30.2367 38.5155C30.422 39.4475 30.8796 40.3036 31.5516 40.9756C32.2235 41.6475 33.0797 42.1051 34.0117 42.2905C34.9437 42.4759 35.9098 42.3807 36.7877 42.0171C37.6656 41.6534 38.416 41.0376 38.944 40.2475C39.4719 39.4573 39.7537 38.5284 39.7537 37.5781C39.7528 36.3041 39.2463 35.0826 38.3454 34.1817C37.4446 33.2809 36.223 32.7744 34.949 32.7734Z" fill="white"/>
<path d="M28.0273 43.3203C27.9986 43.3204 27.9698 43.319 27.9412 43.3162C27.9125 43.3133 27.8826 43.3086 27.8557 43.3033C27.8287 43.298 27.7971 43.2904 27.7719 43.2822C27.7444 43.2739 27.7174 43.2641 27.691 43.2529C27.6646 43.2421 27.6388 43.23 27.6137 43.2166C27.5881 43.203 27.5633 43.1882 27.5393 43.1721C27.5158 43.1562 27.4924 43.1393 27.4701 43.1211C27.4478 43.1029 27.4262 43.083 27.4057 43.0625C27.3852 43.042 27.3658 43.0203 27.3471 42.998C27.3283 42.9758 27.3119 42.9523 27.2961 42.9289C27.2802 42.9049 27.2655 42.88 27.2521 42.8545C27.2389 42.8291 27.2266 42.8033 27.2152 42.7771C27.2041 42.7508 27.1947 42.7232 27.1859 42.6957C27.1771 42.6682 27.1707 42.6406 27.1648 42.6125C27.159 42.5844 27.1549 42.5539 27.1519 42.5269C27.1493 42.4985 27.1481 42.47 27.1484 42.4414C27.1483 42.4124 27.1497 42.3835 27.1525 42.3547C27.1555 42.3266 27.1602 42.2961 27.1654 42.2697C27.1707 42.2434 27.1783 42.2111 27.1865 42.1859C27.1947 42.1607 27.2047 42.1314 27.2158 42.1051C27.2269 42.0787 27.2393 42.0529 27.2527 42.0277C27.2661 42.0022 27.2808 41.9774 27.2967 41.9533C27.3125 41.9299 27.3295 41.9064 27.3477 41.8842C27.3658 41.8619 27.3857 41.8402 27.4062 41.8197C27.4268 41.7992 27.4484 41.7799 27.4707 41.7611C27.493 41.7424 27.5164 41.726 27.5398 41.7102C27.5879 41.6788 27.6387 41.6517 27.6916 41.6293C27.718 41.6182 27.7455 41.6088 27.7725 41.6C27.7994 41.5912 27.8311 41.5848 27.8562 41.5789C27.8814 41.573 27.9148 41.5689 27.9418 41.566C27.9993 41.5607 28.0571 41.5607 28.1146 41.566C28.1428 41.5689 28.1732 41.5736 28.1996 41.5789C28.226 41.5842 28.2582 41.5918 28.2828 41.6C28.3074 41.6082 28.3379 41.6182 28.3643 41.6293C28.3906 41.6404 28.4164 41.6527 28.4416 41.6662C28.4923 41.6933 28.5404 41.725 28.5852 41.7611C28.6074 41.7793 28.6291 41.7992 28.649 41.8197C28.6689 41.8402 28.6889 41.8619 28.7076 41.8842C28.7264 41.9064 28.7428 41.9299 28.7586 41.9533C28.7745 41.9774 28.7891 42.0022 28.8025 42.0277C28.8158 42.0531 28.8281 42.0789 28.8394 42.1051C28.8506 42.1314 28.86 42.159 28.8687 42.1859C28.8775 42.2129 28.884 42.2416 28.8898 42.2697C28.8957 42.2978 28.8998 42.3283 28.9027 42.3547C28.9054 42.3835 28.9065 42.4125 28.9062 42.4414C28.9064 42.4702 28.905 42.4989 28.9021 42.5275C28.8992 42.5562 28.8945 42.5861 28.8893 42.6131C28.884 42.64 28.8764 42.6717 28.8682 42.6963C28.86 42.7209 28.85 42.7514 28.8389 42.7777C28.8277 42.8041 28.8154 42.8299 28.8019 42.8551C28.7886 42.8806 28.7739 42.9054 28.758 42.9295C28.7422 42.9529 28.7246 42.9764 28.707 42.9986C28.6894 43.0209 28.6689 43.0426 28.6484 43.0631C28.6279 43.0836 28.6068 43.1029 28.5846 43.1217C28.5396 43.1577 28.4916 43.1896 28.441 43.2172C28.4158 43.2301 28.39 43.243 28.3637 43.2535C28.3371 43.2648 28.3099 43.2745 28.2822 43.2828C28.2553 43.291 28.2271 43.298 28.199 43.3039C28.1709 43.3098 28.1404 43.3139 28.1141 43.3168C28.0852 43.3194 28.0563 43.3206 28.0273 43.3203Z" fill="white"/>
<path d="M45.8475 47.0598H24.0506C23.8175 47.0598 23.5939 46.9672 23.4291 46.8023C23.2643 46.6375 23.1717 46.414 23.1717 46.1809V30.4988C23.1717 30.2657 23.2643 30.0422 23.4291 29.8773C23.5939 29.7125 23.8175 29.6199 24.0506 29.6199H28.7738L30.1801 26.8133C30.253 26.6677 30.3651 26.5452 30.5036 26.4595C30.6421 26.3738 30.8018 26.3283 30.9646 26.3281H38.9334C39.0966 26.328 39.2566 26.3734 39.3955 26.459C39.5343 26.5447 39.6466 26.6674 39.7197 26.8133L41.126 29.6199H45.8486C46.0817 29.6199 46.3053 29.7125 46.4701 29.8773C46.6349 30.0422 46.7275 30.2657 46.7275 30.4988V46.1809C46.7275 46.2964 46.7048 46.4108 46.6605 46.5175C46.6163 46.6242 46.5514 46.7211 46.4697 46.8028C46.388 46.8844 46.2909 46.9491 46.1842 46.9932C46.0774 47.0373 45.963 47.0599 45.8475 47.0598ZM24.9295 45.302H44.9685V31.3777H40.5822C40.4191 31.3777 40.2593 31.3323 40.1205 31.2467C39.9817 31.161 39.8695 31.0384 39.7965 30.8926L38.3902 28.0859H31.5078L30.1016 30.8926C30.0285 31.0383 29.9164 31.1608 29.7778 31.2465C29.6391 31.3322 29.4794 31.3776 29.3164 31.3777H24.9295V45.302Z" fill="white"/>
</svg>
