<svg width="36" height="36" viewBox="0 0 36 36" fill="none" xmlns="http://www.w3.org/2000/svg">
<path d="M28.8525 2.625H7.1475C4.6545 2.625 2.625 4.653 2.625 7.1475V28.854C2.625 31.347 4.653 33.3765 7.1475 33.3765H28.854C31.347 33.3765 33.3765 31.3485 33.3765 28.854V7.1475C33.375 4.653 31.347 2.625 28.8525 2.625ZM31.566 28.8525C31.566 30.348 30.3495 31.566 28.8525 31.566H7.1475C5.652 31.566 4.434 30.3495 4.434 28.8525V25.581L11.733 17.4705L21.5925 26.433L27.045 21.8895L31.5675 25.6575L31.566 28.8525ZM31.566 23.304L27.0435 19.536L21.642 24.036L11.6055 14.91L4.434 22.878V7.1475C4.434 5.652 5.6505 4.434 7.1475 4.434H28.854C30.3495 4.434 31.5675 5.6505 31.5675 7.1475L31.566 23.304Z" fill="black"/>
<path d="M24.3315 16.191C26.8245 16.191 28.854 14.163 28.854 11.6685C28.854 9.174 26.826 7.146 24.3315 7.146C21.8385 7.146 19.809 9.174 19.809 11.6685C19.809 14.163 21.837 16.191 24.3315 16.191ZM24.3315 8.9565C25.827 8.9565 27.045 10.173 27.045 11.67C27.045 13.167 25.8285 14.3835 24.3315 14.3835C22.8345 14.3835 21.618 13.167 21.618 11.67C21.618 10.173 22.8345 8.9565 24.3315 8.9565Z" fill="black"/>
</svg>
