<svg width="24" height="24" viewBox="0 0 24 24" fill="none" xmlns="http://www.w3.org/2000/svg">
<path fill-rule="evenodd" clip-rule="evenodd" d="M9.82332 5.56202L15.2358 7.99716C16.8811 8.73739 18.176 9.31996 19.0544 9.87163C19.922 10.4165 20.6 11.0626 20.6 12C20.6 12.9375 19.922 13.5835 19.0544 14.1284C18.176 14.6801 16.8811 15.2627 15.2358 16.0029L9.82332 18.438C8.81769 18.8905 8.03538 19.2425 7.42452 19.4709C6.82677 19.6944 6.29254 19.8412 5.81751 19.7895C4.66534 19.6643 3.6739 18.8742 3.43395 17.7587C3.33225 17.286 3.47445 16.7571 3.67877 16.2077C3.89031 15.6389 4.22654 14.9085 4.65488 13.978L4.66643 13.9529C5.0012 13.2257 5.13003 12.9388 5.19577 12.6525C5.29466 12.2218 5.29466 11.7782 5.19577 11.3476C5.13003 11.0613 5.0012 10.7743 4.66643 10.0471L4.65488 10.022C4.22654 9.09154 3.89031 8.36117 3.67877 7.79233C3.47445 7.24293 3.33225 6.71407 3.43395 6.24131C3.6739 5.12588 4.66534 4.3358 5.81751 4.2105C6.29254 4.15885 6.82677 4.30565 7.42452 4.52917C8.03538 4.7576 8.8177 5.10957 9.82332 5.56202ZM7.00422 5.65316C6.41687 5.43353 6.11683 5.38503 5.94724 5.40347C5.23679 5.48073 4.72371 5.95165 4.60711 6.49369C4.58542 6.59454 4.60057 6.82834 4.80351 7.37405C4.99732 7.8952 5.31411 8.58437 5.75648 9.54532C5.76617 9.56637 5.77575 9.58717 5.78521 9.60773C6.08202 10.2523 6.26846 10.6571 6.36533 11.079C6.5048 11.6864 6.5048 12.3137 6.36533 12.921C6.26846 13.3429 6.08202 13.7478 5.78521 14.3923C5.77574 14.4129 5.76617 14.4337 5.75648 14.4547C5.31411 15.4157 4.99732 16.1048 4.80351 16.626C4.60057 17.1717 4.58542 17.4055 4.60711 17.5064C4.72371 18.0484 5.23679 18.5193 5.94724 18.5966C6.11683 18.615 6.41687 18.5665 7.00421 18.3469C7.57407 18.1338 8.32081 17.7982 9.35263 17.3339L14.6949 14.9304C16.3992 14.1636 17.6169 13.6142 18.4162 13.1122C19.2349 12.5981 19.4 12.2641 19.4 12C19.4 11.736 19.2349 11.402 18.4162 10.8878C17.6169 10.3859 16.3992 9.83643 14.6949 9.06968L9.35263 6.66611C8.32082 6.20189 7.57407 5.86625 7.00422 5.65316Z" fill="#02040F"/>
</svg>
